<svg xmlns="http://www.w3.org/2000/svg" aria-hidden="true" style="position:absolute;width:0;height:0;overflow:hidden">
  <defs>
    <symbol id="icon4" viewBox="0 0 32 32">
      <path fill="#4d5ae5" d="M31.974 4.524a.534.534 0 0 0-.43-.363l-1.91-.278-.855-1.731c-.179-.365-.777-.365-.956 0l-.855 1.731-1.91.278a.535.535 0 0 0-.296.91l1.383 1.348-.326 1.903c-.034.2.048.402.212.522a.53.53 0 0 0 .562.04l1.709-.899 1.709.899a.536.536 0 0 0 .775-.563l-.326-1.903 1.383-1.348a.536.536 0 0 0 .135-.547zm-2.463 1.327a.534.534 0 0 0-.153.472l.191 1.114-1-.526a.533.533 0 0 0-.498 0l-1.001.526.191-1.114a.534.534 0 0 0-.153-.472l-.81-.789 1.119-.163a.532.532 0 0 0 .402-.292l.5-1.013.5 1.013a.535.535 0 0 0 .402.292l1.119.163-.809.789zM26.133 20.522h-1.067v1.067h1.067v-1.067zM26.133 22.656h-1.067v1.067h1.067v-1.067zM27.2 21.589h-1.067v1.067H27.2v-1.067zM25.067 21.589H24v1.067h1.067v-1.067zM22.4 26.389h-1.067v1.067H22.4v-1.067zM22.4 28.522h-1.067v1.067H22.4v-1.067zM23.467 27.456H22.4v1.067h1.067v-1.067zM21.333 27.456h-1.067v1.067h1.067v-1.067zM16 24.256h-1.067v1.067H16v-1.067zM16 26.389h-1.067v1.067H16v-1.067zM17.067 25.322H16v1.067h1.067v-1.067zM14.933 25.322h-1.067v1.067h1.067v-1.067zM5.867 6.122H4.8v1.067h1.067V6.122zM5.867 8.255H4.8v1.067h1.067V8.255z" style="fill:var(--color1, #4d5ae5)"/>
      <path fill="#4d5ae5" d="M6.933 7.189H5.866v1.067h1.067V7.189zM4.8 7.189H3.733v1.067H4.8V7.189z" style="fill:var(--color1, #4d5ae5)"/>
      <path fill="#2e2f42" d="M24.715 14.159a1.775 1.775 0 0 0-1.188-.705 1.778 1.778 0 0 0-1.34.352l-1.252.96-1.898 1.417-1.358-.541c2.421-1.086 4.114-3.508 4.114-6.32 0-3.823-3.123-6.933-6.961-6.933s-6.961 3.11-6.961 6.933a6.86 6.86 0 0 0 1.12 3.758l-2.764-.024h-.005c-.009 0-.015.004-.023.005a.515.515 0 0 0-.155.031l-.038.013c-.006.003-.013.003-.019.006l-3.233 1.596-.001.001-1.893.911a.397.397 0 0 0-.063.035 1.779 1.779 0 0 0-.598 2.295c.22.429.595.745 1.056.889a1.776 1.776 0 0 0 1.378-.128l1.388-.738 2.264-1.169 1.357-.008L2.2 22.211l-.002.001-1.339 1.333c-.316.315-.49.732-.49 1.178s.174.863.49 1.179c.325.323.752.485 1.179.485s.854-.162 1.18-.485l1.314-1.309 1.741-1.3.901.897-1.762 1.754-.002.001-1.339 1.333c-.316.315-.49.732-.49 1.178s.174.863.49 1.179c.325.323.753.485 1.18.485s.855-.162 1.18-.485l3.482-3.467.001-.002 1.01-1-.004-.004c.006-.006.015-.009.022-.015l5.166-5.658 3.471.494a.52.52 0 0 0 .262-.033c.018-.006.033-.015.05-.023.019-.01.039-.015.058-.027l3.213-2.133c.012-.008.018-.021.029-.029.013-.01.029-.014.041-.026l1.271-1.191c.662-.62.753-1.635.212-2.362zM2.13 17.77a.714.714 0 0 1-.558.052.717.717 0 0 1-.213-1.26l1.314-.632.449 1.313-.992.527zm3.498-1.828-1.548.8-.439-1.283 2.027-1.001-.04 1.484zm15.099-6.62a5.79 5.79 0 0 1-.599 2.559l-4.181-1.899a1.863 1.863 0 0 0-.788-1.388l1.464-4.86c2.378.756 4.105 2.974 4.105 5.588zm-11.789 0c0-3.235 2.644-5.867 5.894-5.867.253 0 .5.021.745.052l-1.432 4.754c-.019-.001-.037-.006-.057-.006-1.033 0-1.873.837-1.873 1.867s.84 1.867 1.873 1.867c.694 0 1.294-.383 1.618-.945l3.862 1.755a5.894 5.894 0 0 1-4.737 2.39c-3.25 0-5.894-2.632-5.894-5.867zm5.956.8c0 .441-.362.8-.806.8s-.806-.359-.806-.8c0-.441.362-.8.806-.8s.806.359.806.8zM2.465 25.146a.608.608 0 0 1-.854.001.592.592 0 0 1 0-.844l.962-.958.851.848-.959.955zm3.214 3.734a.608.608 0 0 1-.855.001.592.592 0 0 1 0-.844l.963-.959.852.848-.96.955zm3.481-3.469-.002.001-1.765 1.76-.852-.848 1.763-1.755.002-.001c.04-.04.065-.088.09-.135.007-.014.02-.026.026-.04.017-.041.019-.085.026-.129.003-.025.014-.047.014-.073 0-.036-.013-.07-.02-.106-.006-.032-.006-.065-.019-.095a.55.55 0 0 0-.091-.138c-.01-.012-.014-.027-.025-.038h-.001l-.001-.002-1.607-1.6c-.017-.017-.039-.024-.058-.038a.507.507 0 0 0-.087-.058.515.515 0 0 0-.093-.033.507.507 0 0 0-.103-.02.5.5 0 0 0-.095.005.53.53 0 0 0-.104.02.477.477 0 0 0-.094.045c-.02.011-.042.015-.061.029L4.23 23.486l-.901-.897 2.399-2.386 4.361 4.289-.928.919zm6.819-7.017c-.015-.002-.03.004-.045.003a.556.556 0 0 0-.3.075.492.492 0 0 0-.083.061c-.013.011-.028.017-.04.029l-4.698 5.146-4.328-4.257 2.833-2.818a.534.534 0 0 0-.379-.911v-.001l-2.219.013.028-1.607 3.104.027a6.947 6.947 0 0 0 4.981 2.101c.437 0 .864-.045 1.279-.123.04.032.079.065.13.085l2.41.96.152.758.178.885-3.003-.427zm4.041.178-.313-1.558 1.446-1.08.947 1.257-2.08 1.381zm3.754-2.831-.838.785-.931-1.236.831-.637a.735.735 0 0 1 .543-.143.718.718 0 0 1 .48.284.713.713 0 0 1-.085.947z" style="fill:var(--color2, #2e2f42)"/>
      <path fill="#2e2f42" d="m13.602 18.544-2.143-2.133a.534.534 0 0 0-.753 0l-2.142 2.133a.537.537 0 0 0 0 .756l2.142 2.133a.536.536 0 0 0 .753 0l2.143-2.133a.535.535 0 0 0 0-.756zm-2.519 1.759-1.387-1.381 1.387-1.381 1.387 1.381-1.387 1.381zM17.164 5.071l-.258 1.036c.071.018 1.738.452 1.738 2.149h1.067c0-2.017-1.666-2.965-2.547-3.185zM19.711 9.322h-1.067v1.067h1.067V9.322z" style="fill:var(--color2, #2e2f42)"/>
    </symbol>
    <symbol id="icon3" viewBox="0 0 32 32">
      <path fill="#4d5ae5" d="M14.925 14.965h1.066v4.798h-1.066v-4.797zM19.19 17.097h1.066v2.665H19.19v-2.665zM10.661 18.696h1.066v1.066h-1.066v-1.066zM7.463 18.163h1.066v1.599H7.463v-1.599z" style="fill:var(--color1, #4d5ae5)"/>
      <path fill="#2e2f42" d="M1.599 28.291h25.587a1.6 1.6 0 0 0 1.599-1.599V24.56a1.6 1.6 0 0 0-1.599-1.599h-.533V9.668L29.681 6.8a1.608 1.608 0 1 0-.746-.763L26.654 8.2V6.97a1.6 1.6 0 0 0-1.599-1.599H3.733A1.6 1.6 0 0 0 2.134 6.97v15.992h-.533a1.6 1.6 0 0 0-1.599 1.599v2.132a1.6 1.6 0 0 0 1.599 1.599zM30.384 4.837a.533.533 0 1 1 0 1.067.533.533 0 0 1 0-1.067zM3.198 6.969c0-.294.239-.533.533-.533h21.322c.294 0 .533.239.533.533v2.239l-1.066 1.013V8.035a.533.533 0 0 0-.533-.533H4.797a.533.533 0 0 0-.533.533v13.326c0 .294.239.533.533.533h19.19a.533.533 0 0 0 .533-.533v-9.674l1.066-1.01v12.284H3.198V6.969zm4.798 6.93a1.598 1.598 0 1 0 1.107 2.749l1.853.93a.532.532 0 0 0 .636-.123l3.939-4.431 3.872 2.901a.533.533 0 0 0 .686-.039l3.365-3.188v8.131H5.33V8.569h18.124v2.66l-3.771 3.572-3.904-2.927a.533.533 0 0 0-.718.072l-3.993 4.493-1.493-.746c.011-.064.018-.129.02-.193a1.6 1.6 0 0 0-1.599-1.599zm.533 1.599a.533.533 0 1 1-1.067 0 .533.533 0 0 1 1.067 0zm3.198 8.529h5.331v.533a.533.533 0 0 1-.533.533h-4.264a.533.533 0 0 1-.533-.533v-.533zm-10.661.533c0-.294.239-.533.533-.533h9.062v.533a1.6 1.6 0 0 0 1.599 1.599h4.264a1.6 1.6 0 0 0 1.599-1.599v-.533h9.062c.294 0 .533.239.533.533v2.132a.533.533 0 0 1-.533.533H1.598a.533.533 0 0 1-.533-.533V24.56z" style="fill:var(--color2, #2e2f42)"/>
    </symbol>
    <symbol id="icon2" viewBox="0 0 32 32">
      <path fill="#2e2f42" d="M31.297 15.301C31.295 6.849 24.442-.002 15.989 0S.686 6.855.688 15.308a15.304 15.304 0 0 0 10.649 14.576.662.662 0 0 0 .529-.065.637.637 0 0 0 .283-.356l3.865-12.25a1.912 1.912 0 1 0-.84-3.635l-5.106-5.107a.637.637 0 0 0-.902.902l5.103 5.109a1.876 1.876 0 0 0 .536 2.309l-3.683 11.673C3.844 25.783.118 17.71 2.799 10.432S13.553-.572 20.831 2.109c7.278 2.681 11.004 10.754 8.323 18.032a14.042 14.042 0 0 1-7.462 7.973l-.398-1.874a.637.637 0 0 0-1.049-.344l-3.837 3.426a.637.637 0 0 0 .231 1.084l4.899 1.564a.638.638 0 0 0 .819-.74l-.391-1.839a15.255 15.255 0 0 0 9.329-14.089zm-15.305-.637a.638.638 0 1 1 0 1.277.638.638 0 0 1 0-1.277zm2.101 14.864 2.184-1.948.603 2.84-2.787-.892z" style="fill:var(--color2, #2e2f42)"/>
      <path fill="#4d5ae5" d="M15.354 3.185V4.46a.638.638 0 1 0 1.276 0V3.185a.638.638 0 0 0-1.276 0zM3.876 14.664a.638.638 0 0 0 0 1.276h1.275a.638.638 0 1 0 0-1.276H3.876zM28.108 15.939a.638.638 0 1 0 0-1.276h-1.275a.638.638 0 0 0 0 1.276h1.275z" style="fill:var(--color1, #4d5ae5)"/>
    </symbol>
    <symbol id="icon1" viewBox="0 0 32 32">
      <path fill="#2e2f42" d="m30.773 22.098-8.443-8.505.937-4.615c.242.094.499.144.758.146h.006a2.159 2.159 0 1 0-2.008-1.435l-4.96.605L8.972.161a.534.534 0 0 0-.377-.16.532.532 0 0 0-.373.155L6.709 1.66a.534.534 0 0 0 0 .754l.814.826a14.943 14.943 0 0 0 2.519 17.663.513.513 0 0 0 .146.098c-.034.18-.051.364-.052.547v6.187h-6.4a2.67 2.67 0 0 0-2.667 2.667v1.067c0 .295.239.533.533.533h24.533a.533.533 0 0 0 .533-.533v-1.067a2.67 2.67 0 0 0-2.667-2.667h-6.4v-2.742a15.09 15.09 0 0 0 3.049.32 14.854 14.854 0 0 0 7.04-1.783l.818.823a.534.534 0 0 0 .377.16.532.532 0 0 0 .373-.155l1.513-1.504a.534.534 0 0 0 0-.754zM23.28 6.233a1.067 1.067 0 1 1 .753 1.822h-.003a1.067 1.067 0 0 1-.747-1.823h-.002zm-1.256 3.505-.598 2.946-1.175-1.182 1.774-1.763zm-.605-.902-1.92 1.909-1.485-1.493 3.405-.415zM24.004 28.8a1.6 1.6 0 0 1 1.6 1.6v.533H2.137V30.4a1.6 1.6 0 0 1 1.6-1.6h20.267zm-7.467-2.133v1.067h-5.333v-1.067h5.333zM11.204 25.6v-4.053c0-1.294 1.196-2.347 2.667-2.347s2.667 1.053 2.667 2.347V25.6h-5.333zm6.4-1.696v-2.357c0-1.882-1.675-3.413-3.733-3.413a3.8 3.8 0 0 0-3.281 1.786A13.87 13.87 0 0 1 8.311 4.033l18.602 18.708a13.818 13.818 0 0 1-9.309 1.163zm11.289-.684L7.836 2.039l.755-.752 7.935 7.98c.004 0 .006.007.01.01l13.115 13.191-.757.752z" style="fill:var(--color2, #2e2f42)"/>
      <path fill="#4d5ae5" d="M13.876 20.267h-.005a1.6 1.6 0 1 0-.004 3.2h.005a1.6 1.6 0 1 0 .004-3.2zm.373 1.978a.534.534 0 0 1-.752-.756.534.534 0 0 1 .373-.155.534.534 0 0 1 .374.911h.005z" style="fill:var(--color1, #4d5ae5)"/>
    </symbol>
      <symbol id="linkedin" viewBox="0 0 32 32">
      <path fill="#f4f4fd" d="M31.992 32v-.001H32V20.263c0-5.741-1.236-10.164-7.948-10.164-3.227 0-5.392 1.771-6.276 3.449h-.093v-2.913h-6.364v21.364h6.627V21.42c0-2.785.528-5.479 3.977-5.479 3.399 0 3.449 3.179 3.449 5.657v10.401h6.62zM.528 10.636h6.635V32H.528V10.636zM3.843 0C1.722 0 0 1.721 0 3.843s1.721 3.879 3.843 3.879c2.121 0 3.843-1.757 3.843-3.879A3.846 3.846 0 0 0 3.843 0z" style="fill:var(--color1, #f4f4fd)"/>
    </symbol>
    <symbol id="facebook" viewBox="0 0 32 32">
      <path fill="#f4f4fd" d="M21.329 5.313h2.921V.225C23.746.156 22.013 0 19.994 0c-4.212 0-7.097 2.649-7.097 7.519V12H8.249v5.688h4.648V32h5.699V17.689h4.46l.708-5.688h-5.169V8.082c.001-1.644.444-2.769 2.735-2.769z" style="fill:var(--color1, #f4f4fd)"/>
    </symbol>
    <symbol id="twitter" viewBox="0 0 32 32">
      <path fill="#f4f4fd" d="M32 6.078c-1.19.522-2.458.868-3.78 1.036a6.523 6.523 0 0 0 2.886-3.626 13.11 13.11 0 0 1-4.16 1.588A6.574 6.574 0 0 0 22.154 3c-3.632 0-6.556 2.948-6.556 6.562 0 .52.044 1.02.152 1.496-5.454-.266-10.28-2.88-13.522-6.862a6.605 6.605 0 0 0-.898 3.316 6.57 6.57 0 0 0 2.914 5.452 6.479 6.479 0 0 1-2.964-.808v.072c0 3.188 2.274 5.836 5.256 6.446a6.548 6.548 0 0 1-1.72.216 5.8 5.8 0 0 1-1.242-.112c.85 2.598 3.262 4.508 6.13 4.57a13.182 13.182 0 0 1-8.134 2.798c-.538 0-1.054-.024-1.57-.09A18.469 18.469 0 0 0 10.064 29c12.072 0 18.672-10 18.672-18.668 0-.29-.01-.57-.024-.848A13.087 13.087 0 0 0 32 6.078z" style="fill:var(--color1, #f4f4fd)"/>
    </symbol>
    <symbol id="instagram" viewBox="0 0 32 32">
      <path fill="#f4f4fd" d="M31.969 9.408c-.075-1.7-.35-2.869-.744-3.882a7.803 7.803 0 0 0-1.85-2.838A7.867 7.867 0 0 0 26.543.844C25.524.45 24.361.175 22.661.1 20.948.019 20.404 0 16.06 0s-4.888.019-6.595.094c-1.7.075-2.869.35-3.882.744a7.803 7.803 0 0 0-2.838 1.85A7.867 7.867 0 0 0 .901 5.52C.507 6.539.232 7.702.157 9.402c-.081 1.713-.1 2.257-.1 6.601s.019 4.888.094 6.595c.075 1.7.35 2.869.744 3.882a7.895 7.895 0 0 0 1.85 2.838 7.867 7.867 0 0 0 2.832 1.844c1.019.394 2.182.669 3.882.744 1.706.075 2.25.094 6.595.094s4.888-.019 6.595-.094c1.7-.075 2.869-.35 3.882-.744a8.181 8.181 0 0 0 4.682-4.682c.394-1.019.669-2.182.744-3.882.075-1.707.094-2.25.094-6.595s-.006-4.888-.081-6.595zm-2.882 13.065c-.069 1.563-.331 2.407-.55 2.969a5.31 5.31 0 0 1-3.038 3.038c-.563.219-1.413.481-2.969.55-1.688.075-2.194.094-6.464.094s-4.782-.019-6.464-.094c-1.563-.069-2.407-.331-2.969-.55a4.926 4.926 0 0 1-1.838-1.194 4.974 4.974 0 0 1-1.194-1.838c-.219-.563-.481-1.413-.55-2.969-.075-1.688-.094-2.194-.094-6.464s.019-4.782.094-6.464c.069-1.563.331-2.407.55-2.969a4.868 4.868 0 0 1 1.2-1.838A4.974 4.974 0 0 1 6.639 3.55c.563-.219 1.413-.481 2.969-.55 1.688-.075 2.194-.094 6.464-.094 4.276 0 4.782.019 6.464.094 1.563.069 2.407.331 2.969.55a4.914 4.914 0 0 1 1.838 1.194 4.974 4.974 0 0 1 1.194 1.838c.219.563.481 1.413.55 2.969.075 1.688.094 2.194.094 6.464s-.019 4.77-.094 6.458z" style="fill:var(--color1, #f4f4fd)"/>
      <path fill="#f4f4fd" d="M16.059 7.783c-4.538 0-8.22 3.682-8.22 8.22s3.682 8.22 8.22 8.22 8.22-3.682 8.22-8.22-3.682-8.22-8.22-8.22zm0 13.552a5.333 5.333 0 0 1 0-10.664 5.333 5.333 0 0 1 0 10.664zM26.524 7.458a1.919 1.919 0 1 1-3.838 0 1.919 1.919 0 0 1 3.838 0z" style="fill:var(--color1, #f4f4fd)"/>
    </symbol>
    <symbol id="close-black" viewBox="0 0 32 32">
      <path fill="#e5e5e5" d="M0 0h32v32H0V0z" style="fill:var(--color1, #e5e5e5)"/>
      <path fill="#fff" d="M-4268-448h5760v2688h-5760V-448z" style="fill:var(--color2, #fff)"/>
      <path d="M-4268-160h5760v2400h-5760V-160z" style="fill:var(--color3, #000)"/>
      <path fill="#2e2f42" d="M-4268-160h5760v2400h-5760V-160z" opacity=".7" style="fill:var(--color4, #2e2f42)"/>
      <path fill="#2e2f42" d="M-4268-448h5760v2704h-5760V-448z" opacity=".4" style="fill:var(--color4, #2e2f42)"/>
      <path fill="#fcfcfc" d="M-1456-128H144c8.837 0 16 7.163 16 16v2304c0 8.837-7.163 16-16 16h-1600c-8.837 0-16-7.163-16-16V-112c0-8.837 7.163-16 16-16z" style="fill:var(--color5, #fcfcfc)"/>
      <path fill="#e7e9fc" d="M64 16c0 26.51-21.49 48-48 48s-48-21.49-48-48 21.49-48 48-48 48 21.49 48 48z" style="fill:var(--color6, #e7e9fc)"/>
      <path fill="none" stroke="#000" stroke-width="4" d="M62 16c0 25.405-20.595 46-46 46s-46-20.595-46-46 20.595-46 46-46S62-9.405 62 16z" style="stroke:var(--color3, #000)"/>
      <path fill="#2e2f42" d="M32 3.223 28.777 0 16 12.777 3.223 0 0 3.223 12.777 16 0 28.777 3.223 32 16 19.223 28.777 32 32 28.777 19.223 16 32 3.223z" style="fill:var(--color4, #2e2f42)"/>
    </symbol>
    <symbol id="email-black" viewBox="0 0 24 32">
      <path fill="#e5e5e5" d="M0 0h24v32H0V0z" style="fill:var(--color1, #e5e5e5)"/>
      <path fill="#fff" d="M-985.333-466.667h1920v896h-1920v-896z" style="fill:var(--color2, #fff)"/>
      <path d="M-985.333-370.667h1920v800h-1920v-800z" style="fill:var(--color3, #000)"/>
      <path fill="#2e2f42" d="M-985.333-370.667h1920v800h-1920v-800z" opacity=".7" style="fill:var(--color4, #2e2f42)"/>
      <path fill="#fff" d="M-314.289-52.531V-44h-28.255v-8.531h28.255zm-24.682-44.552V-44h-10.939v-53.083h10.939zm21 21.619v8.313h-24.573v-8.313h24.573zm3.646-21.619v8.568h-28.219v-8.568h28.219zM-294.348-44h-10.572v-42.948c0-2.99.583-5.505 1.749-7.547a11.447 11.447 0 0 1 4.995-4.667c2.164-1.069 4.728-1.604 7.693-1.604.972 0 1.908.073 2.807.219.9.122 1.775.28 2.625.474l-.109 7.911c-.463-.121-.948-.207-1.459-.255s-1.105-.073-1.787-.073c-1.264 0-2.345.219-3.244.656a4.37 4.37 0 0 0-2.005 1.859c-.463.826-.693 1.835-.693 3.026v42.948zm7.875-39.448v7.437h-24.317v-7.437h24.317zM-266.093-44h-10.573v-42.948c0-2.99.583-5.505 1.749-7.547a11.453 11.453 0 0 1 4.995-4.667c2.164-1.069 4.728-1.604 7.693-1.604.972 0 1.908.073 2.807.219.9.122 1.775.28 2.625.474l-.109 7.911a9.094 9.094 0 0 0-1.459-.255 18.93 18.93 0 0 0-1.785-.073c-1.264 0-2.347.219-3.245.656-.875.413-1.544 1.033-2.005 1.859s-.692 1.835-.692 3.026v42.948zm7.874-39.448v7.437h-24.319v-7.437h24.319zm24.28 40.177c-3.063 0-5.809-.486-8.24-1.458-2.431-.997-4.496-2.37-6.199-4.12a18.336 18.336 0 0 1-3.864-6.089c-.899-2.333-1.349-4.813-1.349-7.437v-1.458c0-2.99.425-5.724 1.276-8.203s2.067-4.63 3.647-6.453c1.604-1.823 3.548-3.221 5.833-4.193 2.284-.997 4.861-1.495 7.729-1.495 2.795 0 5.273.462 7.437 1.385 2.163.924 3.973 2.236 5.432 3.938 1.483 1.701 2.6 3.743 3.355 6.125.753 2.358 1.129 4.983 1.129 7.875v4.375h-31.353v-7h21.036v-.802c0-1.458-.268-2.759-.803-3.901a6.185 6.185 0 0 0-2.333-2.771c-1.044-.681-2.381-1.021-4.009-1.021-1.385 0-2.577.304-3.573.911s-1.811 1.458-2.443 2.552c-.608 1.094-1.069 2.382-1.385 3.865-.292 1.458-.437 3.063-.437 4.813v1.458c0 1.58.219 3.038.656 4.375.461 1.337 1.105 2.491 1.932 3.464a8.817 8.817 0 0 0 3.063 2.26c1.215.535 2.588.802 4.12.802 1.896 0 3.657-.365 5.287-1.094 1.652-.753 3.075-1.884 4.265-3.391l5.104 5.542c-.827 1.191-1.956 2.333-3.391 3.427-1.409 1.094-3.111 1.993-5.104 2.698-1.993.681-4.265 1.021-6.817 1.021zm39.956-8.203c1.288 0 2.431-.243 3.428-.729.996-.511 1.773-1.215 2.333-2.115.583-.924.887-2.005.911-3.245h9.88c-.024 2.771-.765 5.238-2.224 7.401-1.457 2.139-3.415 3.828-5.869 5.068-2.455 1.215-5.201 1.823-8.24 1.823-3.063 0-5.736-.51-8.02-1.531-2.261-1.021-4.144-2.431-5.652-4.229-1.507-1.823-2.636-3.938-3.391-6.344-.753-2.431-1.129-5.031-1.129-7.802v-1.057c0-2.795.376-5.396 1.129-7.802.755-2.431 1.884-4.545 3.391-6.344 1.508-1.823 3.391-3.245 5.652-4.266 2.26-1.021 4.909-1.531 7.948-1.531 3.232 0 6.064.62 8.495 1.859 2.455 1.24 4.375 3.014 5.76 5.323 1.409 2.285 2.127 4.995 2.151 8.13h-9.88c-.024-1.313-.304-2.503-.839-3.573a6.056 6.056 0 0 0-2.26-2.552c-.972-.656-2.176-.984-3.609-.984-1.531 0-2.783.328-3.755.984-.973.632-1.727 1.507-2.261 2.625-.535 1.094-.911 2.345-1.129 3.755a31.392 31.392 0 0 0-.292 4.375v1.057c0 1.531.097 3.002.292 4.411.193 1.41.559 2.661 1.093 3.755.559 1.094 1.324 1.957 2.297 2.589.972.632 2.236.948 3.791.948zm43.458-31.974v7.437h-22.969v-7.437h22.969zm-17.282-9.734h10.5v37.297c0 1.142.145 2.017.437 2.625.316.608.777 1.033 1.385 1.276.608.219 1.373.328 2.297.328.656 0 1.24-.024 1.749-.073a22.53 22.53 0 0 0 1.349-.219l.036 7.729c-.899.292-1.871.523-2.916.693s-2.2.255-3.464.255c-2.309 0-4.327-.377-6.052-1.13-1.701-.778-3.013-2.017-3.937-3.719s-1.385-3.938-1.385-6.708v-38.354zm35.837 9.734V-44h-10.537v-39.448h10.537zm-11.193-10.281c0-1.531.535-2.795 1.604-3.792s2.504-1.495 4.303-1.495c1.775 0 3.196.498 4.266 1.495 1.094.997 1.641 2.26 1.641 3.792s-.547 2.795-1.641 3.792c-1.07.997-2.491 1.495-4.266 1.495-1.799 0-3.233-.498-4.303-1.495s-1.604-2.26-1.604-3.792zm34.78 42.073 8.75-31.792h10.974L-101.966-44h-6.635l.219-7.656zm-6.015-31.792 8.786 31.828.182 7.62h-6.672l-13.307-39.448h11.01zm49.582 40.177c-3.063 0-5.809-.486-8.24-1.458-2.431-.997-4.497-2.37-6.198-4.12a18.323 18.323 0 0 1-3.865-6.089c-.899-2.333-1.349-4.813-1.349-7.437v-1.458c0-2.99.425-5.724 1.276-8.203s2.066-4.63 3.646-6.453c1.604-1.823 3.549-3.221 5.833-4.193 2.285-.997 4.861-1.495 7.729-1.495 2.795 0 5.274.462 7.437 1.385s3.974 2.236 5.432 3.938c1.483 1.701 2.601 3.743 3.354 6.125.753 2.358 1.13 4.983 1.13 7.875v4.375h-31.354v-7h21.037v-.802c0-1.458-.267-2.759-.802-3.901-.51-1.167-1.288-2.09-2.333-2.771s-2.382-1.021-4.01-1.021c-1.385 0-2.576.304-3.573.911s-1.811 1.458-2.443 2.552c-.608 1.094-1.069 2.382-1.385 3.865-.292 1.458-.437 3.063-.437 4.813v1.458c0 1.58.219 3.038.656 4.375.462 1.337 1.106 2.491 1.932 3.464a8.808 8.808 0 0 0 3.063 2.26c1.215.535 2.589.802 4.12.802 1.896 0 3.658-.365 5.286-1.094 1.653-.753 3.075-1.884 4.266-3.391l5.104 5.542c-.826 1.191-1.957 2.333-3.391 3.427-1.41 1.094-3.111 1.993-5.104 2.698-1.993.681-4.266 1.021-6.818 1.021zm72.039-14.62c0-.948-.146-1.799-.438-2.552-.267-.778-.778-1.483-1.531-2.115-.753-.656-1.811-1.3-3.172-1.932s-3.123-1.288-5.286-1.969a67.013 67.013 0 0 1-6.854-2.625c-2.139-.972-4.035-2.102-5.688-3.391-1.628-1.312-2.917-2.832-3.865-4.557-.924-1.726-1.385-3.731-1.385-6.016 0-2.212.486-4.217 1.458-6.016.972-1.823 2.333-3.378 4.083-4.667 1.75-1.312 3.816-2.321 6.198-3.026 2.406-.705 5.043-1.057 7.911-1.057 3.913 0 7.328.705 10.245 2.115s5.177 3.342 6.781 5.797c1.629 2.455 2.443 5.262 2.443 8.422H7.258c0-1.555-.328-2.917-.984-4.083-.632-1.191-1.604-2.127-2.917-2.807-1.288-.681-2.917-1.021-4.885-1.021-1.896 0-3.476.292-4.74.875-1.264.559-2.212 1.325-2.844 2.297-.632.948-.948 2.017-.948 3.208 0 .899.219 1.713.656 2.443.462.729 1.142 1.41 2.042 2.042s2.005 1.227 3.318 1.786 2.832 1.106 4.557 1.641c2.892.875 5.432 1.859 7.62 2.953 2.212 1.094 4.059 2.321 5.542 3.682s2.601 2.905 3.354 4.63 1.13 3.682 1.13 5.87c0 2.309-.45 4.375-1.349 6.198s-2.2 3.366-3.901 4.63c-1.701 1.264-3.731 2.224-6.089 2.88s-4.995.984-7.911.984c-2.625 0-5.214-.34-7.766-1.021-2.552-.705-4.873-1.762-6.964-3.172-2.066-1.41-3.719-3.208-4.958-5.396s-1.859-4.776-1.859-7.766h10.974c0 1.653.255 3.05.766 4.193s1.227 2.066 2.151 2.771c.948.705 2.066 1.215 3.354 1.531 1.313.316 2.747.474 4.302.474 1.896 0 3.451-.267 4.667-.802 1.24-.535 2.151-1.276 2.734-2.224.608-.948.911-2.017.911-3.208zm17.534-5.432v-.766c0-2.892.413-5.554 1.24-7.984.826-2.455 2.029-4.582 3.609-6.38s3.524-3.196 5.833-4.193c2.309-1.021 4.958-1.531 7.948-1.531s5.651.51 7.984 1.531c2.333.997 4.29 2.394 5.87 4.193 1.604 1.799 2.819 3.925 3.646 6.38.826 2.431 1.24 5.092 1.24 7.984v.766c0 2.868-.413 5.529-1.24 7.984-.826 2.431-2.042 4.557-3.646 6.38-1.58 1.799-3.524 3.196-5.833 4.193s-4.958 1.495-7.948 1.495-5.651-.498-7.984-1.495c-2.309-.997-4.266-2.394-5.87-4.193-1.58-1.823-2.783-3.95-3.609-6.38-.826-2.455-1.24-5.116-1.24-7.984zm10.5-.766v.766c0 1.653.146 3.196.437 4.63s.753 2.698 1.385 3.792c.656 1.069 1.507 1.908 2.552 2.516s2.321.911 3.828.911c1.458 0 2.71-.304 3.755-.911s1.884-1.446 2.516-2.516c.632-1.094 1.094-2.358 1.385-3.792.316-1.434.474-2.977.474-4.63v-.766c0-1.604-.158-3.111-.474-4.521-.292-1.434-.766-2.698-1.422-3.792-.632-1.118-1.47-1.993-2.516-2.625s-2.309-.948-3.792-.948-2.747.316-3.792.948c-1.021.632-1.859 1.507-2.516 2.625-.632 1.094-1.094 2.358-1.385 3.792-.292 1.41-.437 2.917-.437 4.521zM81.157-100v56H70.621v-56h10.536zm33.504 46.557v-30.005h10.5V-44h-9.88l-.62-9.443zm1.166-8.093 3.099-.073c0 2.625-.304 5.068-.911 7.328-.608 2.236-1.519 4.181-2.734 5.833a12.776 12.776 0 0 1-4.594 3.828c-1.847.899-4.023 1.349-6.526 1.349-1.92 0-3.694-.267-5.323-.802a10.829 10.829 0 0 1-4.156-2.589c-1.142-1.191-2.042-2.71-2.698-4.557-.632-1.871-.948-4.12-.948-6.745v-25.484h10.5v25.557c0 1.167.134 2.151.401 2.953.292.802.693 1.458 1.203 1.969s1.106.875 1.786 1.094c.705.219 1.483.328 2.333.328 2.163 0 3.865-.437 5.104-1.312 1.264-.875 2.151-2.066 2.661-3.573.535-1.531.802-3.233.802-5.104zm38.17-21.912v7.437h-22.968v-7.437h22.968zm-17.281-9.734h10.5v37.297c0 1.142.147 2.017.439 2.625.316.608.777 1.033 1.385 1.276.607.219 1.373.328 2.296.328.657 0 1.24-.024 1.751-.073.535-.073.984-.146 1.349-.219l.036 7.729c-.9.292-1.872.523-2.917.693-1.044.17-2.199.255-3.463.255-2.309 0-4.327-.377-6.052-1.13-1.701-.778-3.015-2.017-3.937-3.719-.924-1.701-1.387-3.938-1.387-6.708v-38.354zm35.837 9.734V-44h-10.536v-39.448h10.536zm-11.192-10.281c0-1.531.535-2.795 1.604-3.792s2.503-1.495 4.301-1.495c1.775 0 3.197.498 4.267 1.495 1.093.997 1.64 2.26 1.64 3.792s-.547 2.795-1.64 3.792c-1.069.997-2.492 1.495-4.267 1.495-1.799 0-3.232-.498-4.301-1.495s-1.604-2.26-1.604-3.792zm19.686 30.406v-.766c0-2.892.413-5.554 1.24-7.984.827-2.455 2.029-4.582 3.609-6.38s3.524-3.196 5.833-4.193c2.309-1.021 4.959-1.531 7.948-1.531s5.651.51 7.984 1.531c2.333.997 4.291 2.394 5.871 4.193 1.604 1.799 2.819 3.925 3.645 6.38.827 2.431 1.24 5.092 1.24 7.984v.766c0 2.868-.413 5.529-1.24 7.984-.827 2.431-2.041 4.557-3.645 6.38-1.58 1.799-3.525 3.196-5.833 4.193-2.309.997-4.959 1.495-7.948 1.495-2.991 0-5.652-.498-7.985-1.495-2.308-.997-4.265-2.394-5.869-4.193-1.58-1.823-2.783-3.95-3.609-6.38-.827-2.455-1.24-5.116-1.24-7.984zm10.5-.766v.766c0 1.653.147 3.196.437 4.63.292 1.434.755 2.698 1.387 3.792a7.23 7.23 0 0 0 2.552 2.516c1.044.608 2.32.911 3.828.911 1.457 0 2.709-.304 3.755-.911s1.884-1.446 2.516-2.516c.632-1.094 1.093-2.358 1.385-3.792.316-1.434.473-2.977.473-4.63v-.766c0-1.604-.157-3.111-.473-4.521-.292-1.434-.765-2.698-1.423-3.792-.631-1.118-1.469-1.993-2.515-2.625s-2.309-.948-3.792-.948-2.747.316-3.792.948c-1.02.632-1.859 1.507-2.515 2.625-.632 1.094-1.095 2.358-1.387 3.792a22.346 22.346 0 0 0-.437 4.521zm45.097-10.937V-44h-10.5v-39.448h9.844l.656 8.422zm-1.531 9.917h-2.844c0-2.917.377-5.542 1.131-7.875.753-2.358 1.811-4.363 3.172-6.016 1.361-1.677 2.977-2.953 4.848-3.828 1.896-.899 4.011-1.349 6.344-1.349 1.848 0 3.537.267 5.068.802a9.684 9.684 0 0 1 3.937 2.552c1.119 1.167 1.969 2.71 2.552 4.63.608 1.92.912 4.266.912 7.036v25.156H249.66v-25.193c0-1.75-.243-3.111-.729-4.083-.485-.972-1.203-1.653-2.151-2.042-.924-.413-2.065-.62-3.427-.62-1.411 0-2.637.279-3.683.839a7.314 7.314 0 0 0-2.552 2.333c-.656.972-1.155 2.115-1.495 3.427s-.511 2.722-.511 4.229zm55.926 10.208c0-.753-.219-1.434-.656-2.042s-1.252-1.167-2.443-1.677c-1.167-.535-2.856-1.021-5.068-1.458a39.321 39.321 0 0 1-5.577-1.641c-1.701-.681-3.184-1.495-4.448-2.443-1.24-.948-2.212-2.066-2.917-3.354-.704-1.313-1.057-2.807-1.057-4.484a10.6 10.6 0 0 1 1.057-4.667c.729-1.458 1.763-2.747 3.099-3.865 1.361-1.142 3.015-2.03 4.959-2.661 1.969-.656 4.181-.984 6.636-.984 3.427 0 6.368.547 8.823 1.641 2.479 1.094 4.375 2.601 5.688 4.521 1.336 1.896 2.004 4.059 2.004 6.49h-10.5c0-1.021-.219-1.932-.656-2.734-.413-.826-1.069-1.471-1.968-1.932-.876-.486-2.017-.729-3.428-.729-1.167 0-2.175.207-3.025.62-.851.389-1.507.924-1.969 1.604a3.86 3.86 0 0 0-.656 2.187c0 .608.121 1.155.365 1.641.267.462.692.887 1.276 1.276.583.389 1.336.753 2.26 1.094.948.316 2.115.608 3.5.875 2.844.583 5.384 1.349 7.62 2.297 2.236.924 4.011 2.187 5.323 3.792 1.312 1.58 1.968 3.658 1.968 6.234 0 1.75-.388 3.354-1.167 4.813-.777 1.458-1.895 2.734-3.353 3.828-1.459 1.069-3.208 1.908-5.251 2.516-2.017.583-4.289.875-6.817.875-3.671 0-6.781-.656-9.333-1.969-2.528-1.313-4.448-2.977-5.76-4.995-1.288-2.042-1.932-4.132-1.932-6.271h9.952c.049 1.434.413 2.589 1.095 3.464a5.97 5.97 0 0 0 2.661 1.896c1.093.389 2.272.583 3.536.583 1.361 0 2.492-.182 3.391-.547.9-.389 1.58-.899 2.041-1.531.487-.656.729-1.41.729-2.26zM-317.389 36h-10.573V-6.948c0-2.99.584-5.505 1.751-7.547a11.447 11.447 0 0 1 4.995-4.667c2.163-1.069 4.727-1.604 7.692-1.604.973 0 1.908.073 2.808.219.899.122 1.775.28 2.625.474l-.109 7.911c-.463-.122-.948-.207-1.459-.255s-1.107-.073-1.787-.073c-1.264 0-2.345.219-3.245.656a4.379 4.379 0 0 0-2.005 1.859c-.461.826-.692 1.835-.692 3.026v42.948zm7.874-39.448V3.99h-24.317v-7.438h24.317zm5.322 20.125v-.766c0-2.892.413-5.554 1.24-7.984.827-2.455 2.029-4.582 3.609-6.38s3.524-3.196 5.833-4.193c2.309-1.021 4.959-1.531 7.948-1.531s5.651.51 7.984 1.531c2.333.997 4.291 2.394 5.871 4.193 1.604 1.799 2.819 3.925 3.645 6.38.827 2.431 1.24 5.092 1.24 7.984v.766c0 2.868-.413 5.529-1.24 7.984-.827 2.431-2.041 4.557-3.645 6.38-1.58 1.799-3.525 3.196-5.833 4.193-2.309.997-4.959 1.495-7.948 1.495-2.991 0-5.652-.498-7.985-1.495-2.308-.997-4.265-2.394-5.869-4.193-1.58-1.823-2.783-3.95-3.609-6.38-.827-2.455-1.24-5.116-1.24-7.984zm10.5-.766v.766c0 1.653.147 3.196.437 4.63.292 1.434.755 2.698 1.385 3.792a7.242 7.242 0 0 0 2.553 2.516c1.044.608 2.32.911 3.828.911 1.457 0 2.709-.304 3.755-.911s1.884-1.446 2.516-2.516c.632-1.094 1.093-2.358 1.385-3.792.316-1.434.473-2.977.473-4.63v-.766c0-1.604-.157-3.111-.473-4.521-.292-1.434-.765-2.698-1.423-3.792-.632-1.118-1.469-1.993-2.515-2.625s-2.309-.948-3.792-.948c-1.483 0-2.747.316-3.792.948-1.02.632-1.859 1.507-2.516 2.625-.631 1.094-1.093 2.358-1.385 3.792a22.346 22.346 0 0 0-.437 4.521zm45.316-10.755V36h-10.5V-3.448h9.881l.619 8.604zm11.886-8.859-.183 9.734a25.07 25.07 0 0 0-1.86-.182 18.845 18.845 0 0 0-1.932-.109c-1.483 0-2.771.194-3.864.583-1.069.365-1.969.911-2.699 1.641-.704.729-1.239 1.616-1.604 2.661-.34 1.045-.535 2.236-.583 3.573l-2.115-.656c0-2.552.255-4.898.765-7.036.511-2.163 1.252-4.047 2.224-5.651.996-1.604 2.212-2.844 3.645-3.719 1.435-.875 3.075-1.313 4.923-1.313.583 0 1.179.049 1.785.146.608.073 1.107.182 1.496.328zm34.487-13.38 11.083 24.208 11.084-24.208h11.921l-17.464 33.76V36h-11.083V16.677l-17.5-33.76h11.959zm35.691 33.76v-.766c0-2.892.413-5.554 1.24-7.984.825-2.455 2.029-4.582 3.609-6.38s3.524-3.196 5.833-4.193c2.308-1.021 4.957-1.531 7.948-1.531 2.989 0 5.651.51 7.984 1.531 2.333.997 4.289 2.394 5.869 4.193 1.605 1.799 2.82 3.925 3.646 6.38.826 2.431 1.24 5.092 1.24 7.984v.766c0 2.868-.413 5.529-1.24 7.984-.826 2.431-2.042 4.557-3.646 6.38-1.58 1.799-3.524 3.196-5.833 4.193s-4.957 1.495-7.948 1.495c-2.989 0-5.651-.498-7.984-1.495-2.309-.997-4.265-2.394-5.869-4.193-1.58-1.823-2.784-3.95-3.609-6.38-.827-2.455-1.24-5.116-1.24-7.984zm10.5-.766v.766c0 1.653.145 3.196.437 4.63s.753 2.698 1.385 3.792c.656 1.069 1.507 1.908 2.552 2.516s2.321.911 3.828.911c1.459 0 2.711-.304 3.756-.911s1.883-1.446 2.515-2.516c.632-1.094 1.095-2.358 1.387-3.792.315-1.434.473-2.977.473-4.63v-.766c0-1.604-.159-3.111-.473-4.521-.292-1.434-.767-2.698-1.423-3.792-.632-1.118-1.471-1.993-2.516-2.625-1.044-.632-2.308-.948-3.791-.948s-2.747.316-3.792.948c-1.021.632-1.86 1.507-2.516 2.625-.632 1.094-1.093 2.358-1.385 3.792-.292 1.41-.437 2.917-.437 4.521zm58.149 10.646V-3.448h10.5V36h-9.88l-.62-9.443zm1.167-8.093 3.099-.073c0 2.625-.304 5.068-.911 7.328-.608 2.236-1.519 4.181-2.734 5.833a12.785 12.785 0 0 1-4.594 3.828c-1.847.899-4.023 1.349-6.526 1.349-1.92 0-3.695-.267-5.323-.802a10.829 10.829 0 0 1-4.156-2.589c-1.142-1.191-2.042-2.71-2.698-4.557-.632-1.871-.948-4.12-.948-6.745V-3.448h10.5v25.557c0 1.167.134 2.151.401 2.953.292.802.693 1.458 1.203 1.969s1.106.875 1.786 1.094c.705.219 1.483.328 2.333.328 2.163 0 3.865-.437 5.104-1.312 1.264-.875 2.151-2.066 2.661-3.573.535-1.531.802-3.233.802-5.104zM-67.15 5.156V36h-10.5V-3.448h9.88l.62 8.604zm11.886-8.859-.182 9.734c-.51-.073-1.13-.134-1.859-.182a18.876 18.876 0 0 0-1.932-.109c-1.483 0-2.771.194-3.865.583-1.069.365-1.969.911-2.698 1.641-.705.729-1.24 1.616-1.604 2.661-.34 1.045-.535 2.236-.583 3.573l-2.115-.656c0-2.552.255-4.898.766-7.036.51-2.163 1.252-4.047 2.224-5.651.997-1.604 2.212-2.844 3.646-3.719s3.075-1.313 4.922-1.313c.583 0 1.179.049 1.787.146.608.073 1.106.182 1.495.328zm47.976 16.406h-13.635l-.073-7.51h11.448c2.017 0 3.67-.255 4.958-.766 1.288-.535 2.248-1.3 2.88-2.297.656-1.021.984-2.26.984-3.719 0-1.653-.316-2.99-.948-4.01-.608-1.021-1.568-1.762-2.88-2.224-1.288-.462-2.953-.693-4.995-.693h-7.583V36h-10.937v-53.083h18.521c3.087 0 5.845.292 8.276.875 2.455.583 4.533 1.47 6.234 2.661s3.002 2.698 3.901 4.521c.899 1.799 1.349 3.938 1.349 6.417 0 2.188-.498 4.205-1.495 6.052-.972 1.847-2.516 3.354-4.63 4.521-2.09 1.167-4.825 1.811-8.203 1.932l-3.172 2.807zM-7.762 36h-16.151l4.266-8.531h11.885c1.92 0 3.488-.304 4.703-.911 1.215-.632 2.115-1.483 2.698-2.552s.875-2.297.875-3.682c0-1.556-.267-2.905-.802-4.047-.51-1.142-1.337-2.017-2.479-2.625-1.142-.632-2.649-.948-4.521-.948h-10.536l.073-7.51h13.125l2.516 2.953c3.233-.049 5.833.523 7.802 1.714 1.993 1.167 3.439 2.686 4.339 4.557.924 1.871 1.385 3.877 1.385 6.016 0 3.403-.741 6.271-2.224 8.604-1.483 2.309-3.658 4.047-6.526 5.214-2.844 1.167-6.319 1.75-10.427 1.75zm51.551-9.443V-3.448h10.5V36h-9.88l-.62-9.443zm1.166-8.093 3.099-.073c0 2.625-.304 5.068-.911 7.328-.608 2.236-1.519 4.181-2.734 5.833a12.785 12.785 0 0 1-4.594 3.828c-1.847.899-4.023 1.349-6.526 1.349-1.92 0-3.695-.267-5.323-.802a10.829 10.829 0 0 1-4.156-2.589c-1.142-1.191-2.042-2.71-2.698-4.557-.632-1.871-.948-4.12-.948-6.745V-3.448h10.5v25.557c0 1.167.134 2.151.401 2.953.292.802.693 1.458 1.203 1.969s1.106.875 1.787 1.094c.705.219 1.483.328 2.333.328 2.163 0 3.865-.437 5.104-1.312 1.264-.875 2.151-2.066 2.661-3.573.535-1.531.802-3.233.802-5.104zm40.176 6.635c0-.753-.219-1.434-.656-2.042s-1.252-1.167-2.443-1.677c-1.167-.535-2.856-1.021-5.068-1.458a39.336 39.336 0 0 1-5.578-1.641c-1.701-.681-3.184-1.495-4.448-2.443-1.24-.948-2.212-2.066-2.917-3.354-.705-1.313-1.057-2.807-1.057-4.484 0-1.653.352-3.208 1.057-4.667.729-1.458 1.762-2.747 3.099-3.865 1.361-1.142 3.014-2.03 4.958-2.661 1.969-.656 4.181-.984 6.635-.984 3.427 0 6.368.547 8.823 1.641 2.479 1.094 4.375 2.601 5.687 4.521 1.337 1.896 2.005 4.059 2.005 6.49h-10.5c0-1.021-.219-1.932-.656-2.734-.413-.826-1.069-1.47-1.969-1.932-.875-.486-2.017-.729-3.427-.729-1.167 0-2.175.207-3.026.62-.851.389-1.507.924-1.969 1.604a3.86 3.86 0 0 0-.656 2.188c0 .608.122 1.155.365 1.641.267.462.693.887 1.276 1.276s1.337.753 2.26 1.094c.948.316 2.115.608 3.5.875 2.844.583 5.384 1.349 7.62 2.297 2.236.924 4.01 2.187 5.323 3.792 1.312 1.58 1.969 3.658 1.969 6.234 0 1.75-.389 3.354-1.167 4.813s-1.896 2.734-3.354 3.828c-1.458 1.069-3.208 1.908-5.25 2.516-2.017.583-4.29.875-6.818.875-3.67 0-6.781-.656-9.333-1.969-2.528-1.313-4.448-2.977-5.76-4.995-1.288-2.042-1.932-4.132-1.932-6.271h9.953c.049 1.434.413 2.589 1.094 3.464a5.976 5.976 0 0 0 2.661 1.896c1.094.389 2.273.583 3.537.583 1.361 0 2.491-.182 3.391-.547.899-.389 1.58-.899 2.042-1.531.486-.656.729-1.41.729-2.26zm29.603-28.547V36h-10.537V-3.448h10.537zm-11.193-10.281c0-1.531.535-2.795 1.604-3.792s2.503-1.495 4.302-1.495c1.774 0 3.196.498 4.266 1.495 1.094.997 1.641 2.26 1.641 3.792s-.547 2.795-1.641 3.792c-1.069.997-2.491 1.495-4.266 1.495-1.799 0-3.233-.498-4.302-1.495s-1.604-2.26-1.604-3.792zm31.644 18.703V36h-10.5V-3.448h9.844l.656 8.422zm-1.53 9.917h-2.844c0-2.917.377-5.542 1.13-7.875.753-2.358 1.811-4.363 3.171-6.016 1.361-1.677 2.977-2.953 4.849-3.828 1.896-.899 4.011-1.349 6.344-1.349 1.847 0 3.536.267 5.068.802a9.698 9.698 0 0 1 3.937 2.552c1.117 1.167 1.968 2.71 2.552 4.63.608 1.92.911 4.266.911 7.036v25.156h-10.572V10.806c0-1.75-.244-3.111-.729-4.083-.487-.972-1.203-1.653-2.151-2.042-.924-.413-2.067-.62-3.428-.62-1.409 0-2.637.279-3.681.839a7.314 7.314 0 0 0-2.552 2.333c-.657.972-1.155 2.115-1.496 3.427-.34 1.313-.509 2.722-.509 4.229zm52.753 21.838c-3.063 0-5.809-.486-8.24-1.458-2.431-.997-4.496-2.37-6.197-4.12a18.323 18.323 0 0 1-3.865-6.089c-.899-2.333-1.348-4.813-1.348-7.437v-1.458c0-2.99.425-5.724 1.276-8.203s2.065-4.63 3.645-6.453c1.604-1.823 3.548-3.22 5.833-4.193 2.285-.997 4.861-1.495 7.729-1.495 2.795 0 5.275.462 7.437 1.385s3.975 2.236 5.432 3.938c1.483 1.701 2.601 3.743 3.355 6.125.753 2.358 1.131 4.983 1.131 7.875v4.375h-31.355v-7h21.036v-.802c0-1.458-.267-2.759-.801-3.901-.511-1.167-1.288-2.09-2.333-2.771s-2.383-1.021-4.011-1.021c-1.385 0-2.576.304-3.573.911-.996.608-1.811 1.458-2.443 2.552-.608 1.094-1.069 2.382-1.385 3.865-.292 1.458-.437 3.063-.437 4.812v1.458c0 1.58.219 3.038.656 4.375.463 1.337 1.107 2.491 1.932 3.464a8.817 8.817 0 0 0 3.063 2.26c1.216.535 2.589.802 4.12.802 1.896 0 3.659-.365 5.287-1.094 1.653-.753 3.075-1.884 4.265-3.391l5.104 5.542c-.827 1.191-1.956 2.333-3.391 3.427-1.409 1.094-3.111 1.993-5.104 2.698-1.993.681-4.265 1.021-6.817 1.021zm44.988-11.63c0-.753-.219-1.434-.656-2.042s-1.252-1.167-2.443-1.677c-1.167-.535-2.856-1.021-5.068-1.458a39.428 39.428 0 0 1-5.579-1.641c-1.701-.681-3.184-1.495-4.448-2.443-1.239-.948-2.211-2.066-2.916-3.354-.705-1.313-1.057-2.807-1.057-4.484 0-1.653.352-3.208 1.057-4.667.729-1.458 1.763-2.747 3.099-3.865 1.361-1.142 3.015-2.03 4.959-2.661 1.968-.656 4.18-.984 6.635-.984 3.428 0 6.369.547 8.824 1.641 2.479 1.094 4.375 2.601 5.687 4.521 1.337 1.896 2.005 4.059 2.005 6.49h-10.5c0-1.021-.219-1.932-.656-2.734-.413-.826-1.069-1.47-1.969-1.932-.875-.486-2.017-.729-3.427-.729-1.167 0-2.175.207-3.025.62-.851.389-1.508.924-1.969 1.604a3.86 3.86 0 0 0-.656 2.188c0 .608.121 1.155.364 1.641.268.462.693.887 1.276 1.276.584.389 1.337.753 2.261 1.094.948.316 2.115.608 3.5.875 2.843.583 5.383 1.349 7.619 2.297 2.237.924 4.011 2.187 5.324 3.792 1.312 1.58 1.968 3.658 1.968 6.234 0 1.75-.388 3.354-1.167 4.813-.777 1.458-1.896 2.734-3.353 3.828-1.459 1.069-3.209 1.908-5.251 2.516-2.017.583-4.289.875-6.817.875-3.671 0-6.781-.656-9.333-1.969-2.528-1.313-4.448-2.977-5.76-4.995-1.289-2.042-1.933-4.132-1.933-6.271h9.953c.049 1.434.413 2.589 1.093 3.464a5.971 5.971 0 0 0 2.663 1.896c1.093.389 2.272.583 3.536.583 1.361 0 2.491-.182 3.391-.547.899-.389 1.58-.899 2.041-1.531.487-.656.729-1.41.729-2.26zm39.848 0c0-.753-.219-1.434-.657-2.042-.437-.608-1.251-1.167-2.443-1.677-1.167-.535-2.855-1.021-5.067-1.458a39.389 39.389 0 0 1-5.579-1.641c-1.701-.681-3.184-1.495-4.448-2.443-1.24-.948-2.212-2.066-2.916-3.354-.705-1.313-1.057-2.807-1.057-4.484 0-1.653.352-3.208 1.057-4.667.729-1.458 1.761-2.747 3.099-3.865 1.361-1.142 3.013-2.03 4.959-2.661 1.968-.656 4.18-.984 6.635-.984 3.427 0 6.368.547 8.823 1.641 2.48 1.094 4.376 2.601 5.688 4.521 1.337 1.896 2.005 4.059 2.005 6.49h-10.5c0-1.021-.219-1.932-.656-2.734-.413-.826-1.069-1.47-1.969-1.932-.875-.486-2.017-.729-3.427-.729-1.167 0-2.176.207-3.027.62-.851.389-1.507.924-1.968 1.604a3.86 3.86 0 0 0-.656 2.188c0 .608.121 1.155.364 1.641.268.462.693.887 1.276 1.276.584.389 1.337.753 2.26 1.094.948.316 2.115.608 3.5.875 2.844.583 5.384 1.349 7.62 2.297 2.236.924 4.011 2.187 5.323 3.792 1.313 1.58 1.969 3.658 1.969 6.234 0 1.75-.389 3.354-1.167 4.813s-1.896 2.734-3.355 3.828c-1.457 1.069-3.208 1.908-5.249 2.516-2.017.583-4.291.875-6.817.875-3.671 0-6.781-.656-9.333-1.969-2.528-1.313-4.448-2.977-5.761-4.995-1.288-2.042-1.932-4.132-1.932-6.271h9.953c.048 1.434.413 2.589 1.093 3.464a5.976 5.976 0 0 0 2.661 1.896c1.095.389 2.273.583 3.537.583 1.36 0 2.491-.182 3.391-.547.899-.389 1.579-.899 2.041-1.531.485-.656.729-1.41.729-2.26z" style="fill:var(--color2, #fff)"/>
      <path fill="#2e2f42" d="M-985.333-466.667h1920v901.333h-1920v-901.333z" opacity=".4" style="fill:var(--color4, #2e2f42)"/>
      <path fill="#fcfcfc" d="M-48-360h533.333a5.333 5.333 0 0 1 5.333 5.333v768a5.333 5.333 0 0 1-5.333 5.333H-48a5.333 5.333 0 0 1-5.333-5.333v-768A5.333 5.333 0 0 1-48-360z" style="fill:var(--color5, #fcfcfc)"/>
      <path fill="none" stroke="#2e2f42" stroke-width="1.333" d="M-16-10h469.333A4.667 4.667 0 0 1 458-5.333v42.667a4.667 4.667 0 0 1-4.667 4.667H-16a4.667 4.667 0 0 1-4.667-4.667V-5.333A4.667 4.667 0 0 1-16-10z" style="stroke:var(--color4, #2e2f42)"/>
      <path fill="#2e2f42" d="M20 8H4c-1.1 0-1.99.9-1.99 2L2 22c0 1.1.9 2 2 2h16c1.1 0 2-.9 2-2V10c0-1.1-.9-2-2-2zm-.4 4.25-7.07 4.42c-.32.2-.74.2-1.06 0L4.4 12.25a.85.85 0 1 1 .9-1.44L12 15l6.7-4.19a.85.85 0 1 1 .9 1.44z" style="fill:var(--color4, #2e2f42)"/>
    </symbol>
    <symbol id="person-black" viewBox="0 0 32 32">
      <path fill="#e5e5e5" d="M0 0h32v32H0V0z" style="fill:var(--color1, #e5e5e5)"/>
      <path fill="#fff" d="M-1313.778-392.889h2560V801.778h-2560V-392.889z" style="fill:var(--color2, #fff)"/>
      <path d="M-1313.778-264.889h2560V801.778h-2560V-264.889z" style="fill:var(--color3, #000)"/>
      <path fill="#2e2f42" d="M-1313.778-264.889h2560V801.778h-2560V-264.889z" opacity=".7" style="fill:var(--color4, #2e2f42)"/>
      <path fill="#2e2f42" d="M-1313.778-392.889h2560V808.889h-2560V-392.889z" opacity=".4" style="fill:var(--color4, #2e2f42)"/>
      <path fill="#fcfcfc" d="M-64-250.667h711.111a7.111 7.111 0 0 1 7.111 7.111v1024a7.111 7.111 0 0 1-7.111 7.111H-64a7.111 7.111 0 0 1-7.111-7.111v-1024A7.111 7.111 0 0 1-64-250.667z" style="fill:var(--color5, #fcfcfc)"/>
      <path fill="none" stroke="#4d5ae5" stroke-width="1.778" d="M-21.333-18.667h625.778a6.222 6.222 0 0 1 6.222 6.222v56.889a6.222 6.222 0 0 1-6.222 6.222H-21.333a6.222 6.222 0 0 1-6.222-6.222v-56.889a6.222 6.222 0 0 1 6.222-6.222z" style="stroke:var(--color7, #4d5ae5)"/>
      <path fill="#4d5ae5" d="M16 16c2.947 0 5.333-2.387 5.333-5.333S18.946 5.334 16 5.334c-2.947 0-5.333 2.387-5.333 5.333S13.054 16 16 16zm0 2.667c-3.56 0-10.667 1.787-10.667 5.333v1.333c0 .733.6 1.333 1.333 1.333h18.667c.733 0 1.333-.6 1.333-1.333V24c0-3.547-7.107-5.333-10.667-5.333z" style="fill:var(--color7, #4d5ae5)"/>
    </symbol>
    <symbol id="phone-black" viewBox="0 0 24 32">
      <path fill="#e5e5e5" d="M0 0h24v32H0V0z" style="fill:var(--color1, #e5e5e5)"/>
      <path fill="#fff" d="M-985.333-378.667h1920v896h-1920v-896z" style="fill:var(--color2, #fff)"/>
      <path d="M-985.333-282.667h1920v800h-1920v-800z" style="fill:var(--color3, #000)"/>
      <path fill="#2e2f42" d="M-985.333-282.667h1920v800h-1920v-800z" opacity=".7" style="fill:var(--color4, #2e2f42)"/>
      <path fill="#fff" d="M-314.289 35.469V44h-28.255v-8.531h28.255zm-24.682-44.552V44h-10.939V-9.083h10.939zm21 21.619v8.312h-24.573v-8.312h24.573zm3.646-21.619v8.568h-28.219v-8.568h28.219zM-294.348 44h-10.572V1.052c0-2.99.583-5.505 1.749-7.547a11.442 11.442 0 0 1 4.995-4.667c2.164-1.069 4.728-1.604 7.693-1.604.972 0 1.908.073 2.807.219.9.122 1.775.28 2.625.474l-.109 7.911c-.463-.122-.948-.207-1.459-.255s-1.105-.073-1.787-.073c-1.264 0-2.345.219-3.244.656a4.37 4.37 0 0 0-2.005 1.859c-.463.826-.693 1.835-.693 3.026v42.948zm7.875-39.448v7.438h-24.317V4.552h24.317zM-266.093 44h-10.573V1.052c0-2.99.583-5.505 1.749-7.547 1.192-2.066 2.856-3.622 4.995-4.667 2.164-1.069 4.728-1.604 7.693-1.604.972 0 1.908.073 2.807.219.9.122 1.775.28 2.625.474l-.109 7.911a8.984 8.984 0 0 0-1.459-.255 18.93 18.93 0 0 0-1.785-.073c-1.264 0-2.347.219-3.245.656-.875.413-1.544 1.033-2.005 1.859s-.692 1.835-.692 3.026v42.948zm7.874-39.448v7.438h-24.319V4.552h24.319zm24.28 40.177c-3.063 0-5.809-.486-8.24-1.458-2.431-.997-4.496-2.37-6.199-4.12a18.336 18.336 0 0 1-3.864-6.089c-.899-2.333-1.349-4.813-1.349-7.437v-1.458c0-2.99.425-5.724 1.276-8.203s2.067-4.63 3.647-6.453c1.604-1.823 3.548-3.22 5.833-4.193 2.284-.997 4.861-1.495 7.729-1.495 2.795 0 5.273.462 7.437 1.385 2.163.924 3.973 2.236 5.432 3.937 1.483 1.701 2.6 3.743 3.355 6.125.753 2.358 1.129 4.983 1.129 7.875v4.375h-31.353v-7h21.036v-.802c0-1.458-.268-2.759-.803-3.901a6.185 6.185 0 0 0-2.333-2.771c-1.044-.681-2.381-1.021-4.009-1.021-1.385 0-2.577.304-3.573.911s-1.811 1.458-2.443 2.552c-.608 1.094-1.069 2.382-1.385 3.865-.292 1.458-.437 3.063-.437 4.813v1.458c0 1.58.219 3.038.656 4.375.461 1.337 1.105 2.491 1.932 3.464a8.817 8.817 0 0 0 3.063 2.26c1.215.535 2.588.802 4.12.802 1.896 0 3.657-.365 5.287-1.094 1.652-.753 3.075-1.884 4.265-3.391l5.104 5.542c-.827 1.191-1.956 2.333-3.391 3.427-1.409 1.094-3.111 1.993-5.104 2.698-1.993.681-4.265 1.021-6.817 1.021zm39.956-8.203c1.288 0 2.431-.243 3.428-.729.996-.511 1.773-1.215 2.333-2.115.583-.924.887-2.005.911-3.245h9.88c-.024 2.771-.765 5.238-2.224 7.401-1.457 2.139-3.415 3.828-5.869 5.068-2.455 1.215-5.201 1.823-8.24 1.823-3.063 0-5.736-.51-8.02-1.531-2.261-1.021-4.144-2.431-5.652-4.229-1.507-1.823-2.636-3.938-3.391-6.344-.753-2.431-1.129-5.031-1.129-7.802v-1.057c0-2.795.376-5.396 1.129-7.802.755-2.431 1.884-4.545 3.391-6.344 1.508-1.823 3.391-3.245 5.652-4.266 2.26-1.021 4.909-1.531 7.948-1.531 3.232 0 6.064.62 8.495 1.859 2.455 1.24 4.375 3.014 5.76 5.323 1.409 2.285 2.127 4.995 2.151 8.13h-9.88c-.024-1.313-.304-2.503-.839-3.573a6.056 6.056 0 0 0-2.26-2.552c-.972-.656-2.176-.984-3.609-.984-1.531 0-2.783.328-3.755.984-.973.632-1.727 1.507-2.261 2.625-.535 1.094-.911 2.345-1.129 3.755a31.392 31.392 0 0 0-.292 4.375v1.057c0 1.531.097 3.002.292 4.411.193 1.41.559 2.661 1.093 3.755.559 1.094 1.324 1.957 2.297 2.589.972.632 2.236.948 3.791.948zm43.458-31.974v7.438h-22.969V4.552h22.969zm-17.282-9.734h10.5v37.297c0 1.142.145 2.017.437 2.625.316.608.777 1.033 1.385 1.276.608.219 1.373.328 2.297.328.656 0 1.24-.024 1.749-.073a22.53 22.53 0 0 0 1.349-.219l.036 7.729c-.899.292-1.871.523-2.916.693s-2.2.255-3.464.255c-2.309 0-4.327-.377-6.052-1.13-1.701-.778-3.013-2.017-3.937-3.719s-1.385-3.938-1.385-6.708V-5.182zm35.837 9.734V44h-10.537V4.552h10.537zm-11.193-10.281c0-1.531.535-2.795 1.604-3.792s2.504-1.495 4.303-1.495c1.775 0 3.196.498 4.266 1.495 1.094.997 1.641 2.26 1.641 3.792s-.547 2.795-1.641 3.792c-1.07.997-2.491 1.495-4.266 1.495-1.799 0-3.233-.498-4.303-1.495s-1.604-2.26-1.604-3.792zm34.78 42.073 8.75-31.792h10.974L-101.966 44h-6.635l.219-7.656zm-6.015-31.792 8.786 31.828.182 7.62h-6.672l-13.307-39.448h11.01zm49.582 40.177c-3.063 0-5.809-.486-8.24-1.458-2.431-.997-4.497-2.37-6.198-4.12a18.323 18.323 0 0 1-3.865-6.089c-.899-2.333-1.349-4.813-1.349-7.437v-1.458c0-2.99.425-5.724 1.276-8.203s2.066-4.63 3.646-6.453c1.604-1.823 3.549-3.22 5.833-4.193 2.285-.997 4.861-1.495 7.729-1.495 2.795 0 5.274.462 7.437 1.385s3.974 2.236 5.432 3.937c1.483 1.701 2.601 3.743 3.354 6.125.753 2.358 1.13 4.983 1.13 7.875v4.375h-31.354v-7h21.037v-.802c0-1.458-.267-2.759-.802-3.901-.51-1.167-1.288-2.09-2.333-2.771s-2.382-1.021-4.01-1.021c-1.385 0-2.576.304-3.573.911s-1.811 1.458-2.443 2.552c-.608 1.094-1.069 2.382-1.385 3.865-.292 1.458-.437 3.063-.437 4.813v1.458c0 1.58.219 3.038.656 4.375.462 1.337 1.106 2.491 1.932 3.464a8.808 8.808 0 0 0 3.063 2.26c1.215.535 2.589.802 4.12.802 1.896 0 3.658-.365 5.286-1.094 1.653-.753 3.075-1.884 4.266-3.391l5.104 5.542c-.826 1.191-1.957 2.333-3.391 3.427-1.41 1.094-3.111 1.993-5.104 2.698-1.993.681-4.266 1.021-6.818 1.021zm72.039-14.62c0-.948-.146-1.799-.438-2.552-.267-.778-.778-1.483-1.531-2.115-.753-.656-1.811-1.3-3.172-1.932s-3.123-1.288-5.286-1.969a67.013 67.013 0 0 1-6.854-2.625c-2.139-.972-4.035-2.102-5.688-3.391-1.628-1.312-2.917-2.832-3.865-4.557-.924-1.726-1.385-3.731-1.385-6.016 0-2.212.486-4.217 1.458-6.016.972-1.823 2.333-3.378 4.083-4.667 1.75-1.313 3.816-2.321 6.198-3.026 2.406-.705 5.043-1.057 7.911-1.057 3.913 0 7.328.705 10.245 2.115s5.177 3.342 6.781 5.797C17.309.553 18.123 3.36 18.123 6.52H7.258c0-1.556-.328-2.917-.984-4.083C5.642 1.246 4.67.31 3.357-.37 2.069-1.051.44-1.391-1.528-1.391c-1.896 0-3.476.292-4.74.875C-7.532.043-8.48.809-9.112 1.781c-.632.948-.948 2.017-.948 3.208 0 .899.219 1.714.656 2.443.462.729 1.142 1.41 2.042 2.042s2.005 1.227 3.318 1.786c1.313.559 2.832 1.106 4.557 1.641 2.892.875 5.432 1.859 7.62 2.953 2.212 1.094 4.059 2.321 5.542 3.682s2.601 2.905 3.354 4.63 1.13 3.682 1.13 5.87c0 2.309-.45 4.375-1.349 6.198s-2.2 3.366-3.901 4.63c-1.701 1.264-3.731 2.224-6.089 2.88s-4.995.984-7.911.984c-2.625 0-5.214-.34-7.766-1.021-2.552-.705-4.873-1.762-6.964-3.172-2.066-1.41-3.719-3.208-4.958-5.396s-1.859-4.776-1.859-7.766h10.974c0 1.653.255 3.05.766 4.193s1.227 2.066 2.151 2.771c.948.705 2.066 1.215 3.354 1.531 1.313.316 2.747.474 4.302.474 1.896 0 3.451-.267 4.667-.802 1.24-.535 2.151-1.276 2.734-2.224.608-.948.911-2.017.911-3.208zm17.534-5.432v-.766c0-2.892.413-5.554 1.24-7.984.826-2.455 2.029-4.582 3.609-6.38s3.524-3.196 5.833-4.193c2.309-1.021 4.958-1.531 7.948-1.531s5.651.51 7.984 1.531c2.333.997 4.29 2.394 5.87 4.193 1.604 1.799 2.819 3.925 3.646 6.38.826 2.431 1.24 5.092 1.24 7.984v.766c0 2.868-.413 5.529-1.24 7.984-.826 2.431-2.042 4.557-3.646 6.38-1.58 1.799-3.524 3.196-5.833 4.193s-4.958 1.495-7.948 1.495-5.651-.498-7.984-1.495c-2.309-.997-4.266-2.394-5.87-4.193-1.58-1.823-2.783-3.95-3.609-6.38-.826-2.455-1.24-5.116-1.24-7.984zm10.5-.766v.766c0 1.653.146 3.196.437 4.63s.753 2.698 1.385 3.792c.656 1.069 1.507 1.908 2.552 2.516s2.321.911 3.828.911c1.458 0 2.71-.304 3.755-.911s1.884-1.446 2.516-2.516c.632-1.094 1.094-2.358 1.385-3.792.316-1.434.474-2.977.474-4.63v-.766c0-1.604-.158-3.111-.474-4.521-.292-1.434-.766-2.698-1.422-3.792-.632-1.118-1.47-1.993-2.516-2.625s-2.309-.948-3.792-.948-2.747.316-3.792.948c-1.021.632-1.859 1.507-2.516 2.625-.632 1.094-1.094 2.358-1.385 3.792-.292 1.41-.437 2.917-.437 4.521zM81.157-12v56H70.621v-56h10.536zm33.504 46.557V4.552h10.5V44h-9.88l-.62-9.443zm1.166-8.093 3.099-.073c0 2.625-.304 5.068-.911 7.328-.608 2.236-1.519 4.181-2.734 5.833a12.776 12.776 0 0 1-4.594 3.828c-1.847.899-4.023 1.349-6.526 1.349-1.92 0-3.694-.267-5.323-.802a10.829 10.829 0 0 1-4.156-2.589c-1.142-1.191-2.042-2.71-2.698-4.557-.632-1.871-.948-4.12-.948-6.745V4.552h10.5v25.557c0 1.167.134 2.151.401 2.953.292.802.693 1.458 1.203 1.969s1.106.875 1.786 1.094c.705.219 1.483.328 2.333.328 2.163 0 3.865-.437 5.104-1.312 1.264-.875 2.151-2.066 2.661-3.573.535-1.531.802-3.233.802-5.104zm38.17-21.912v7.438h-22.968V4.552h22.968zm-17.281-9.734h10.5v37.297c0 1.142.147 2.017.439 2.625.316.608.777 1.033 1.385 1.276.607.219 1.373.328 2.296.328.657 0 1.24-.024 1.751-.073.535-.073.984-.146 1.349-.219l.036 7.729c-.9.292-1.872.523-2.917.693-1.044.17-2.199.255-3.463.255-2.309 0-4.327-.377-6.052-1.13-1.701-.778-3.015-2.017-3.937-3.719-.924-1.701-1.387-3.938-1.387-6.708V-5.182zm35.837 9.734V44h-10.536V4.552h10.536zM161.361-5.729c0-1.531.535-2.795 1.604-3.792s2.503-1.495 4.301-1.495c1.775 0 3.197.498 4.267 1.495 1.093.997 1.64 2.26 1.64 3.792s-.547 2.795-1.64 3.792c-1.069.997-2.492 1.495-4.267 1.495-1.799 0-3.232-.498-4.301-1.495s-1.604-2.26-1.604-3.792zm19.686 30.406v-.766c0-2.892.413-5.554 1.24-7.984.827-2.455 2.029-4.582 3.609-6.38s3.524-3.196 5.833-4.193c2.309-1.021 4.959-1.531 7.948-1.531s5.651.51 7.984 1.531c2.333.997 4.291 2.394 5.871 4.193 1.604 1.799 2.819 3.925 3.645 6.38.827 2.431 1.24 5.092 1.24 7.984v.766c0 2.868-.413 5.529-1.24 7.984-.827 2.431-2.041 4.557-3.645 6.38-1.58 1.799-3.525 3.196-5.833 4.193-2.309.997-4.959 1.495-7.948 1.495-2.991 0-5.652-.498-7.985-1.495-2.308-.997-4.265-2.394-5.869-4.193-1.58-1.823-2.783-3.95-3.609-6.38-.827-2.455-1.24-5.116-1.24-7.984zm10.5-.766v.766c0 1.653.147 3.196.437 4.63.292 1.434.755 2.698 1.387 3.792a7.23 7.23 0 0 0 2.552 2.516c1.044.608 2.32.911 3.828.911 1.457 0 2.709-.304 3.755-.911s1.884-1.446 2.516-2.516c.632-1.094 1.093-2.358 1.385-3.792.316-1.434.473-2.977.473-4.63v-.766c0-1.604-.157-3.111-.473-4.521-.292-1.434-.765-2.698-1.423-3.792-.631-1.118-1.469-1.993-2.515-2.625s-2.309-.948-3.792-.948-2.747.316-3.792.948c-1.02.632-1.859 1.507-2.515 2.625-.632 1.094-1.095 2.358-1.387 3.792a22.346 22.346 0 0 0-.437 4.521zm45.097-10.937V44h-10.5V4.552h9.844l.656 8.422zm-1.531 9.917h-2.844c0-2.917.377-5.542 1.131-7.875.753-2.358 1.811-4.363 3.172-6.016 1.361-1.677 2.977-2.953 4.848-3.828 1.896-.899 4.011-1.349 6.344-1.349 1.848 0 3.537.267 5.068.802a9.684 9.684 0 0 1 3.937 2.552c1.119 1.167 1.969 2.71 2.552 4.63.608 1.92.912 4.266.912 7.036v25.156H249.66V18.806c0-1.75-.243-3.111-.729-4.083-.485-.972-1.203-1.653-2.151-2.042-.924-.413-2.065-.62-3.427-.62-1.411 0-2.637.28-3.683.839a7.314 7.314 0 0 0-2.552 2.333c-.656.972-1.155 2.115-1.495 3.427s-.511 2.722-.511 4.229zm55.926 10.208c0-.753-.219-1.434-.656-2.042s-1.252-1.167-2.443-1.677c-1.167-.535-2.856-1.021-5.068-1.458a39.321 39.321 0 0 1-5.577-1.641c-1.701-.681-3.184-1.495-4.448-2.443-1.24-.948-2.212-2.066-2.917-3.354-.704-1.313-1.057-2.807-1.057-4.484a10.6 10.6 0 0 1 1.057-4.667c.729-1.458 1.763-2.747 3.099-3.865 1.361-1.142 3.015-2.029 4.959-2.661 1.969-.656 4.181-.984 6.636-.984 3.427 0 6.368.547 8.823 1.641 2.479 1.094 4.375 2.601 5.688 4.521 1.336 1.896 2.004 4.059 2.004 6.49h-10.5c0-1.021-.219-1.932-.656-2.734-.413-.826-1.069-1.47-1.968-1.932-.876-.486-2.017-.729-3.428-.729-1.167 0-2.175.207-3.025.62-.851.389-1.507.924-1.969 1.604a3.86 3.86 0 0 0-.656 2.188c0 .608.121 1.155.365 1.641.267.462.692.887 1.276 1.276.583.389 1.336.753 2.26 1.094.948.316 2.115.608 3.5.875 2.844.583 5.384 1.349 7.62 2.297 2.236.924 4.011 2.187 5.323 3.792 1.312 1.58 1.968 3.658 1.968 6.234 0 1.75-.388 3.354-1.167 4.813-.777 1.458-1.895 2.734-3.353 3.828-1.459 1.069-3.208 1.908-5.251 2.516-2.017.583-4.289.875-6.817.875-3.671 0-6.781-.656-9.333-1.969-2.528-1.313-4.448-2.977-5.76-4.995-1.288-2.042-1.932-4.132-1.932-6.271h9.952c.049 1.434.413 2.589 1.095 3.464a5.97 5.97 0 0 0 2.661 1.896c1.093.389 2.272.583 3.536.583 1.361 0 2.492-.182 3.391-.547.9-.389 1.58-.899 2.041-1.531.487-.656.729-1.41.729-2.26zM-317.389 124h-10.573V81.052c0-2.99.584-5.505 1.751-7.547a11.447 11.447 0 0 1 4.995-4.667c2.163-1.069 4.727-1.604 7.692-1.604.973 0 1.908.073 2.808.219.899.122 1.775.28 2.625.474l-.109 7.911c-.463-.121-.948-.207-1.459-.255s-1.107-.073-1.787-.073c-1.264 0-2.345.219-3.245.656a4.379 4.379 0 0 0-2.005 1.859c-.461.826-.692 1.835-.692 3.026v42.948zm7.874-39.448v7.437h-24.317v-7.437h24.317zm5.322 20.125v-.766c0-2.892.413-5.554 1.24-7.984.827-2.455 2.029-4.582 3.609-6.38s3.524-3.196 5.833-4.193c2.309-1.021 4.959-1.531 7.948-1.531s5.651.51 7.984 1.531c2.333.997 4.291 2.394 5.871 4.193 1.604 1.799 2.819 3.925 3.645 6.38.827 2.431 1.24 5.092 1.24 7.984v.766c0 2.868-.413 5.529-1.24 7.984-.827 2.431-2.041 4.557-3.645 6.38-1.58 1.799-3.525 3.196-5.833 4.193-2.309.997-4.959 1.495-7.948 1.495-2.991 0-5.652-.498-7.985-1.495-2.308-.997-4.265-2.394-5.869-4.193-1.58-1.823-2.783-3.95-3.609-6.38-.827-2.455-1.24-5.116-1.24-7.984zm10.5-.766v.766c0 1.653.147 3.196.437 4.63.292 1.434.755 2.698 1.385 3.792a7.242 7.242 0 0 0 2.553 2.516c1.044.608 2.32.911 3.828.911 1.457 0 2.709-.304 3.755-.911s1.884-1.446 2.516-2.516c.632-1.094 1.093-2.358 1.385-3.792.316-1.434.473-2.977.473-4.63v-.766c0-1.604-.157-3.111-.473-4.521-.292-1.434-.765-2.698-1.423-3.792-.632-1.118-1.469-1.993-2.515-2.625s-2.309-.948-3.792-.948-2.747.316-3.792.948c-1.02.632-1.859 1.507-2.516 2.625-.631 1.094-1.093 2.358-1.385 3.792a22.346 22.346 0 0 0-.437 4.521zm45.316-10.755V124h-10.5V84.552h9.881l.619 8.604zm11.886-8.859-.183 9.734a25.07 25.07 0 0 0-1.86-.182 18.845 18.845 0 0 0-1.932-.109c-1.483 0-2.771.194-3.864.583-1.069.365-1.969.911-2.699 1.641-.704.729-1.239 1.616-1.604 2.661-.34 1.045-.535 2.236-.583 3.573l-2.115-.656c0-2.552.255-4.897.765-7.036.511-2.163 1.252-4.047 2.224-5.651.996-1.604 2.212-2.844 3.645-3.719 1.435-.875 3.075-1.313 4.923-1.313.583 0 1.179.049 1.785.146.608.073 1.107.182 1.496.328zm34.487-13.38 11.083 24.208 11.084-24.208h11.921l-17.464 33.76V124h-11.083v-19.323l-17.5-33.76h11.959zm35.691 33.76v-.766c0-2.892.413-5.554 1.24-7.984.825-2.455 2.029-4.582 3.609-6.38s3.524-3.196 5.833-4.193c2.308-1.021 4.957-1.531 7.948-1.531 2.989 0 5.651.51 7.984 1.531 2.333.997 4.289 2.394 5.869 4.193 1.605 1.799 2.82 3.925 3.646 6.38.826 2.431 1.24 5.092 1.24 7.984v.766c0 2.868-.413 5.529-1.24 7.984-.826 2.431-2.042 4.557-3.646 6.38-1.58 1.799-3.524 3.196-5.833 4.193s-4.957 1.495-7.948 1.495c-2.989 0-5.651-.498-7.984-1.495-2.309-.997-4.265-2.394-5.869-4.193-1.58-1.823-2.784-3.95-3.609-6.38-.827-2.455-1.24-5.116-1.24-7.984zm10.5-.766v.766c0 1.653.145 3.196.437 4.63s.753 2.698 1.385 3.792c.656 1.069 1.507 1.908 2.552 2.516s2.321.911 3.828.911c1.459 0 2.711-.304 3.756-.911s1.883-1.446 2.515-2.516c.632-1.094 1.095-2.358 1.387-3.792.315-1.434.473-2.977.473-4.63v-.766c0-1.604-.159-3.111-.473-4.521-.292-1.434-.767-2.698-1.423-3.792-.632-1.118-1.471-1.993-2.516-2.625-1.044-.632-2.308-.948-3.791-.948s-2.747.316-3.792.948c-1.021.632-1.86 1.507-2.516 2.625-.632 1.094-1.093 2.358-1.385 3.792-.292 1.41-.437 2.917-.437 4.521zm58.149 10.646V84.552h10.5V124h-9.88l-.62-9.443zm1.167-8.093 3.099-.073c0 2.625-.304 5.068-.911 7.328-.608 2.236-1.519 4.181-2.734 5.833a12.785 12.785 0 0 1-4.594 3.828c-1.847.899-4.023 1.349-6.526 1.349-1.92 0-3.695-.267-5.323-.802a10.829 10.829 0 0 1-4.156-2.589c-1.142-1.191-2.042-2.71-2.698-4.557-.632-1.871-.948-4.12-.948-6.745V84.552h10.5v25.557c0 1.167.134 2.151.401 2.953.292.802.693 1.458 1.203 1.969s1.106.875 1.786 1.094c.705.219 1.483.328 2.333.328 2.163 0 3.865-.437 5.104-1.312 1.264-.875 2.151-2.066 2.661-3.573.535-1.531.802-3.233.802-5.104zm29.347-13.308V124h-10.5V84.552h9.88l.62 8.604zm11.886-8.859-.182 9.734c-.51-.073-1.13-.134-1.859-.182a18.876 18.876 0 0 0-1.932-.109c-1.483 0-2.771.194-3.865.583-1.069.365-1.969.911-2.698 1.641-.705.729-1.24 1.616-1.604 2.661-.34 1.045-.535 2.236-.583 3.573l-2.115-.656c0-2.552.255-4.897.766-7.036.51-2.163 1.252-4.047 2.224-5.651.997-1.604 2.212-2.844 3.646-3.719s3.075-1.313 4.922-1.313c.583 0 1.179.049 1.787.146.608.073 1.106.182 1.495.328zm47.976 16.406h-13.635l-.073-7.51h11.448c2.017 0 3.67-.255 4.958-.766 1.288-.535 2.248-1.3 2.88-2.297.656-1.021.984-2.261.984-3.719 0-1.653-.316-2.99-.948-4.01-.608-1.021-1.568-1.762-2.88-2.224-1.288-.462-2.953-.693-4.995-.693h-7.583V124h-10.937V70.917h18.521c3.087 0 5.845.292 8.276.875 2.455.583 4.533 1.47 6.234 2.661s3.002 2.698 3.901 4.521c.899 1.799 1.349 3.937 1.349 6.417 0 2.187-.498 4.205-1.495 6.052-.972 1.847-2.516 3.354-4.63 4.521-2.09 1.167-4.825 1.811-8.203 1.932l-3.172 2.807zM-7.762 124h-16.151l4.266-8.531h11.885c1.92 0 3.488-.304 4.703-.911 1.215-.632 2.115-1.483 2.698-2.552s.875-2.297.875-3.682c0-1.556-.267-2.905-.802-4.047-.51-1.142-1.337-2.017-2.479-2.625-1.142-.632-2.649-.948-4.521-.948h-10.536l.073-7.51h13.125l2.516 2.953c3.233-.049 5.833.523 7.802 1.713 1.993 1.167 3.439 2.686 4.339 4.557.924 1.871 1.385 3.877 1.385 6.016 0 3.403-.741 6.271-2.224 8.604-1.483 2.309-3.658 4.047-6.526 5.214-2.844 1.167-6.319 1.75-10.427 1.75zm51.551-9.443V84.552h10.5V124h-9.88l-.62-9.443zm1.166-8.093 3.099-.073c0 2.625-.304 5.068-.911 7.328-.608 2.236-1.519 4.181-2.734 5.833a12.785 12.785 0 0 1-4.594 3.828c-1.847.899-4.023 1.349-6.526 1.349-1.92 0-3.695-.267-5.323-.802a10.829 10.829 0 0 1-4.156-2.589c-1.142-1.191-2.042-2.71-2.698-4.557-.632-1.871-.948-4.12-.948-6.745V84.552h10.5v25.557c0 1.167.134 2.151.401 2.953.292.802.693 1.458 1.203 1.969s1.106.875 1.787 1.094c.705.219 1.483.328 2.333.328 2.163 0 3.865-.437 5.104-1.312 1.264-.875 2.151-2.066 2.661-3.573.535-1.531.802-3.233.802-5.104zm40.176 6.635c0-.753-.219-1.434-.656-2.042s-1.252-1.167-2.443-1.677c-1.167-.535-2.856-1.021-5.068-1.458a39.336 39.336 0 0 1-5.578-1.641c-1.701-.681-3.184-1.495-4.448-2.443-1.24-.948-2.212-2.066-2.917-3.354-.705-1.313-1.057-2.807-1.057-4.484 0-1.653.352-3.208 1.057-4.667.729-1.458 1.762-2.747 3.099-3.865 1.361-1.142 3.014-2.03 4.958-2.661 1.969-.656 4.181-.984 6.635-.984 3.427 0 6.368.547 8.823 1.641 2.479 1.094 4.375 2.601 5.687 4.521 1.337 1.896 2.005 4.059 2.005 6.49h-10.5c0-1.021-.219-1.932-.656-2.734-.413-.826-1.069-1.471-1.969-1.932-.875-.486-2.017-.729-3.427-.729-1.167 0-2.175.207-3.026.62-.851.389-1.507.924-1.969 1.604a3.86 3.86 0 0 0-.656 2.187c0 .608.122 1.155.365 1.641.267.462.693.887 1.276 1.276s1.337.753 2.26 1.094c.948.316 2.115.608 3.5.875 2.844.583 5.384 1.349 7.62 2.297 2.236.924 4.01 2.187 5.323 3.792 1.312 1.58 1.969 3.658 1.969 6.234 0 1.75-.389 3.354-1.167 4.813s-1.896 2.734-3.354 3.828c-1.458 1.069-3.208 1.908-5.25 2.516-2.017.583-4.29.875-6.818.875-3.67 0-6.781-.656-9.333-1.969-2.528-1.313-4.448-2.977-5.76-4.995-1.288-2.042-1.932-4.132-1.932-6.271h9.953c.049 1.434.413 2.589 1.094 3.464a5.976 5.976 0 0 0 2.661 1.896c1.094.389 2.273.583 3.537.583 1.361 0 2.491-.182 3.391-.547.899-.389 1.58-.899 2.042-1.531.486-.656.729-1.41.729-2.26zm29.603-28.547V124h-10.537V84.552h10.537zm-11.193-10.281c0-1.531.535-2.795 1.604-3.792s2.503-1.495 4.302-1.495c1.774 0 3.196.498 4.266 1.495 1.094.997 1.641 2.26 1.641 3.792s-.547 2.795-1.641 3.792c-1.069.997-2.491 1.495-4.266 1.495-1.799 0-3.233-.498-4.302-1.495s-1.604-2.26-1.604-3.792zm31.644 18.703V124h-10.5V84.552h9.844l.656 8.422zm-1.53 9.917h-2.844c0-2.917.377-5.542 1.13-7.875.753-2.358 1.811-4.363 3.171-6.016 1.361-1.677 2.977-2.953 4.849-3.828 1.896-.899 4.011-1.349 6.344-1.349 1.847 0 3.536.267 5.068.802a9.698 9.698 0 0 1 3.937 2.552c1.117 1.167 1.968 2.71 2.552 4.63.608 1.92.911 4.266.911 7.036v25.156h-10.572V98.806c0-1.75-.244-3.111-.729-4.083-.487-.972-1.203-1.653-2.151-2.042-.924-.413-2.067-.62-3.428-.62-1.409 0-2.637.279-3.681.839a7.314 7.314 0 0 0-2.552 2.333c-.657.972-1.155 2.115-1.496 3.427-.34 1.313-.509 2.722-.509 4.229zm52.753 21.838c-3.063 0-5.809-.486-8.24-1.458-2.431-.997-4.496-2.37-6.197-4.12a18.323 18.323 0 0 1-3.865-6.089c-.899-2.333-1.348-4.813-1.348-7.437v-1.458c0-2.99.425-5.724 1.276-8.203s2.065-4.63 3.645-6.453c1.604-1.823 3.548-3.221 5.833-4.193 2.285-.997 4.861-1.495 7.729-1.495 2.795 0 5.275.462 7.437 1.385s3.975 2.236 5.432 3.938c1.483 1.701 2.601 3.743 3.355 6.125.753 2.358 1.131 4.983 1.131 7.875v4.375h-31.355v-7h21.036v-.802c0-1.458-.267-2.759-.801-3.901-.511-1.167-1.288-2.09-2.333-2.771s-2.383-1.021-4.011-1.021c-1.385 0-2.576.304-3.573.911-.996.608-1.811 1.458-2.443 2.552-.608 1.094-1.069 2.382-1.385 3.865-.292 1.458-.437 3.063-.437 4.813v1.458c0 1.58.219 3.038.656 4.375.463 1.337 1.107 2.491 1.932 3.464a8.817 8.817 0 0 0 3.063 2.26c1.216.535 2.589.802 4.12.802 1.896 0 3.659-.365 5.287-1.094 1.653-.753 3.075-1.884 4.265-3.391l5.104 5.542c-.827 1.191-1.956 2.333-3.391 3.427-1.409 1.094-3.111 1.993-5.104 2.698-1.993.681-4.265 1.021-6.817 1.021zm44.988-11.63c0-.753-.219-1.434-.656-2.042s-1.252-1.167-2.443-1.677c-1.167-.535-2.856-1.021-5.068-1.458a39.428 39.428 0 0 1-5.579-1.641c-1.701-.681-3.184-1.495-4.448-2.443-1.239-.948-2.211-2.066-2.916-3.354-.705-1.313-1.057-2.807-1.057-4.484 0-1.653.352-3.208 1.057-4.667.729-1.458 1.763-2.747 3.099-3.865 1.361-1.142 3.015-2.03 4.959-2.661 1.968-.656 4.18-.984 6.635-.984 3.428 0 6.369.547 8.824 1.641 2.479 1.094 4.375 2.601 5.687 4.521 1.337 1.896 2.005 4.059 2.005 6.49h-10.5c0-1.021-.219-1.932-.656-2.734-.413-.826-1.069-1.471-1.969-1.932-.875-.486-2.017-.729-3.427-.729-1.167 0-2.175.207-3.025.62-.851.389-1.508.924-1.969 1.604a3.86 3.86 0 0 0-.656 2.187c0 .608.121 1.155.364 1.641.268.462.693.887 1.276 1.276.584.389 1.337.753 2.261 1.094.948.316 2.115.608 3.5.875 2.843.583 5.383 1.349 7.619 2.297 2.237.924 4.011 2.187 5.324 3.792 1.312 1.58 1.968 3.658 1.968 6.234 0 1.75-.388 3.354-1.167 4.813-.777 1.458-1.896 2.734-3.353 3.828-1.459 1.069-3.209 1.908-5.251 2.516-2.017.583-4.289.875-6.817.875-3.671 0-6.781-.656-9.333-1.969-2.528-1.313-4.448-2.977-5.76-4.995-1.289-2.042-1.933-4.132-1.933-6.271h9.953c.049 1.434.413 2.589 1.093 3.464a5.971 5.971 0 0 0 2.663 1.896c1.093.389 2.272.583 3.536.583 1.361 0 2.491-.182 3.391-.547.899-.389 1.58-.899 2.041-1.531.487-.656.729-1.41.729-2.26zm39.848 0c0-.753-.219-1.434-.657-2.042-.437-.608-1.251-1.167-2.443-1.677-1.167-.535-2.855-1.021-5.067-1.458a39.389 39.389 0 0 1-5.579-1.641c-1.701-.681-3.184-1.495-4.448-2.443-1.24-.948-2.212-2.066-2.916-3.354-.705-1.313-1.057-2.807-1.057-4.484 0-1.653.352-3.208 1.057-4.667.729-1.458 1.761-2.747 3.099-3.865 1.361-1.142 3.013-2.03 4.959-2.661 1.968-.656 4.18-.984 6.635-.984 3.427 0 6.368.547 8.823 1.641 2.48 1.094 4.376 2.601 5.688 4.521 1.337 1.896 2.005 4.059 2.005 6.49h-10.5c0-1.021-.219-1.932-.656-2.734-.413-.826-1.069-1.471-1.969-1.932-.875-.486-2.017-.729-3.427-.729-1.167 0-2.176.207-3.027.62-.851.389-1.507.924-1.968 1.604a3.86 3.86 0 0 0-.656 2.187c0 .608.121 1.155.364 1.641.268.462.693.887 1.276 1.276.584.389 1.337.753 2.26 1.094.948.316 2.115.608 3.5.875 2.844.583 5.384 1.349 7.62 2.297 2.236.924 4.011 2.187 5.323 3.792 1.313 1.58 1.969 3.658 1.969 6.234 0 1.75-.389 3.354-1.167 4.813s-1.896 2.734-3.355 3.828c-1.457 1.069-3.208 1.908-5.249 2.516-2.017.583-4.291.875-6.817.875-3.671 0-6.781-.656-9.333-1.969-2.528-1.313-4.448-2.977-5.761-4.995-1.288-2.042-1.932-4.132-1.932-6.271h9.953c.048 1.434.413 2.589 1.093 3.464a5.976 5.976 0 0 0 2.661 1.896c1.095.389 2.273.583 3.537.583 1.36 0 2.491-.182 3.391-.547.899-.389 1.579-.899 2.041-1.531.485-.656.729-1.41.729-2.26z" style="fill:var(--color2, #fff)"/>
      <path fill="#2e2f42" d="M-985.333-378.667h1920v901.333h-1920v-901.333z" opacity=".4" style="fill:var(--color4, #2e2f42)"/>
      <path fill="#fcfcfc" d="M-48-272h533.333a5.333 5.333 0 0 1 5.333 5.333v768a5.333 5.333 0 0 1-5.333 5.333H-48a5.333 5.333 0 0 1-5.333-5.333v-768A5.333 5.333 0 0 1-48-272z" style="fill:var(--color5, #fcfcfc)"/>
      <path fill="none" stroke="#2e2f42" stroke-width="1.333" d="M-16-10h469.333A4.667 4.667 0 0 1 458-5.333v42.667a4.667 4.667 0 0 1-4.667 4.667H-16a4.667 4.667 0 0 1-4.667-4.667V-5.333A4.667 4.667 0 0 1-16-10z" style="stroke:var(--color4, #2e2f42)"/>
      <path fill="#2e2f42" d="m19.635 18.487-2.451-.28a1.92 1.92 0 0 0-1.582.55l-1.775 1.775a14.514 14.514 0 0 1-6.359-6.359l1.785-1.785c.415-.415.618-.994.55-1.582l-.28-2.432a1.931 1.931 0 0 0-1.92-1.708H5.934c-1.09 0-1.997.907-1.93 1.997.511 8.24 7.102 14.821 15.332 15.332 1.09.068 1.997-.839 1.997-1.93v-1.669a1.913 1.913 0 0 0-1.698-1.911z" style="fill:var(--color4, #2e2f42)"/>
    </symbol>
  </defs>
</svg>
